<svg width="32" height="32" viewBox="0 0 32 32" fill="none" xmlns="http://www.w3.org/2000/svg">
  <!-- 背景 -->
  <rect width="32" height="32" rx="6" fill="#3B82F6"/>
  
  <!-- 画像アイコン1 -->
  <rect x="4" y="8" width="8" height="6" rx="1" fill="#FFFFFF" opacity="0.9"/>
  <circle cx="6" cy="10" r="1" fill="#3B82F6"/>
  <path d="M4 12 L6 10 L8 12 L12 10 V13 H4 V12" fill="#E5E7EB"/>
  
  <!-- 画像アイコン2 -->
  <rect x="14" y="8" width="8" height="6" rx="1" fill="#FFFFFF" opacity="0.9"/>
  <circle cx="16" cy="10" r="1" fill="#3B82F6"/>
  <path d="M14 12 L16 10 L18 12 L22 10 V13 H14 V12" fill="#E5E7EB"/>
  
  <!-- 画像アイコン3 -->
  <rect x="24" y="8" width="4" height="6" rx="1" fill="#FFFFFF" opacity="0.7"/>
  <circle cx="25.5" cy="10" r="0.5" fill="#3B82F6"/>
  <path d="M24 12 L25.5 10.5 L26.5 12 L28 11 V13 H24 V12" fill="#E5E7EB"/>
  
  <!-- つなげる矢印 -->
  <path d="M12 11 L14 11" stroke="#FFFFFF" stroke-width="1.5" stroke-linecap="round"/>
  <path d="M22 11 L24 11" stroke="#FFFFFF" stroke-width="1.5" stroke-linecap="round"/>
  
  <!-- 結果画像 -->
  <rect x="6" y="18" width="20" height="8" rx="2" fill="#FFFFFF" opacity="0.95"/>
  <circle cx="9" cy="21" r="1" fill="#3B82F6"/>
  <circle cx="15" cy="21" r="1" fill="#3B82F6"/>  
  <circle cx="23" cy="21" r="0.5" fill="#3B82F6"/>
  <path d="M6 24 L9 21 L12 24 L15 21 L18 24 L23 22 L26 24 V25 H6 V24" fill="#E5E7EB"/>
</svg>